<svg xmlns="http://www.w3.org/2000/svg" xmlns:xlink="http://www.w3.org/1999/xlink" width="2000" zoomAndPan="magnify" viewBox="0 0 1500 1499.999933" height="2000" preserveAspectRatio="xMidYMid meet" version="1.0"><defs><g/></defs><rect x="-150" width="1800" fill="#ffffff" y="-149.999993" height="1799.99992" fill-opacity="1"/><rect x="-150" width="1800" fill="#02213d" y="-149.999993" height="1799.99992" fill-opacity="1"/><path fill="#b89b53" d="M 665.046875 180.039062 C 667.65625 180.828125 669.015625 181.761719 670.945312 183.65625 C 673.398438 186.3125 675.226562 188.59375 676.335938 192.082031 C 676.769531 195.457031 676.761719 198.78125 675.871094 202.078125 C 675.160156 203.714844 674.425781 204.976562 673.324219 206.382812 C 672.304688 206.949219 671.273438 207.5 670.238281 208.039062 C 668.542969 209.171875 668.542969 209.171875 667.304688 210.898438 C 666.414062 215.039062 666.566406 219.125 666.660156 223.339844 C 666.667969 224.570312 666.675781 225.800781 666.675781 227.027344 C 666.691406 229.601562 666.71875 232.175781 666.765625 234.75 C 666.824219 238.039062 666.851562 241.324219 666.867188 244.613281 C 666.882812 247.761719 666.914062 250.910156 666.945312 254.058594 L 666.960938 255.867188 C 666.976562 257.5625 667.003906 259.261719 667.035156 260.960938 L 667.082031 263.882812 C 667.378906 267.542969 668.042969 270.695312 670.0625 273.792969 L 671.539062 275.539062 L 673.164062 277.488281 C 674.714844 279.257812 676.292969 281.007812 677.886719 282.734375 C 681.136719 286.351562 683.679688 290.257812 686.121094 294.449219 L 687.125 296.148438 C 688.167969 298.050781 689.019531 299.988281 689.882812 301.976562 L 691.03125 304.464844 C 696.136719 316.90625 695.023438 330.644531 694.945312 343.832031 C 694.929688 347.582031 694.941406 351.332031 694.945312 355.078125 C 694.953125 362.40625 694.941406 369.734375 694.917969 377.058594 C 694.890625 385.605469 694.886719 394.152344 694.886719 402.699219 C 694.882812 417.957031 694.859375 433.210938 694.824219 448.46875 C 694.789062 463.246094 694.769531 478.023438 694.761719 492.800781 L 694.761719 495.5625 L 694.757812 501.0625 L 694.757812 503.804688 C 694.757812 505.160156 694.757812 505.160156 694.757812 506.542969 C 694.75 520.664062 694.734375 534.785156 694.714844 548.902344 C 694.710938 554.007812 694.703125 559.109375 694.699219 564.214844 C 694.691406 572.3125 694.683594 580.40625 694.660156 588.503906 C 694.648438 592.199219 694.644531 595.894531 694.640625 599.589844 C 694.640625 602.984375 694.632812 606.375 694.617188 609.765625 C 694.613281 610.984375 694.613281 612.203125 694.613281 613.421875 C 694.621094 621.855469 693.972656 630.074219 692.894531 638.441406 L 689.882812 638.441406 C 686.25 631.390625 682.875 624.761719 681.347656 616.945312 C 680.277344 611.550781 679.210938 606.753906 675.96875 602.191406 C 671.898438 597.585938 667.316406 593.5 662.765625 589.375 C 660.320312 587.125 658 584.753906 655.6875 582.367188 C 654.546875 581.164062 654.546875 581.164062 653 580.480469 L 653 578.976562 L 651.667969 578.378906 C 649.394531 577.148438 647.757812 575.460938 645.914062 573.667969 C 642.554688 571.136719 639.265625 568.855469 634.996094 568.226562 C 631.480469 567.941406 627.964844 567.960938 624.445312 567.992188 C 622.421875 568.011719 620.402344 568.007812 618.378906 568 C 614.082031 567.984375 609.785156 568 605.488281 568.015625 C 600.515625 568.03125 595.542969 568.035156 590.570312 568.015625 C 588.601562 568.011719 586.632812 568.027344 584.664062 568.046875 C 574.53125 568.0625 564.726562 566.753906 555.667969 561.851562 L 554.171875 561.074219 C 546.238281 556.835938 540.179688 551.304688 533.972656 544.871094 C 532.851562 543.726562 531.730469 542.578125 530.609375 541.4375 C 529.847656 540.65625 529.09375 539.875 528.339844 539.085938 C 522.496094 532.996094 516.640625 528.40625 508.527344 525.675781 C 500.695312 523.640625 492.363281 523.859375 484.316406 523.601562 C 482.449219 523.539062 480.578125 523.476562 478.710938 523.410156 C 473.402344 523.21875 468.09375 523.035156 462.785156 522.863281 C 459.519531 522.757812 456.253906 522.644531 452.988281 522.527344 C 451.757812 522.480469 450.527344 522.441406 449.296875 522.40625 C 439.53125 522.113281 430.035156 521.234375 421.023438 517.113281 L 419.636719 516.535156 C 409.863281 512.199219 402.769531 504.335938 395.539062 496.738281 C 394.277344 495.414062 393 494.105469 391.722656 492.792969 L 390.578125 491.566406 C 389.347656 490.269531 389.347656 490.269531 387.292969 488.652344 C 384.121094 487.804688 381.246094 487.894531 377.980469 488.039062 C 374.972656 488.046875 372.433594 488.007812 369.652344 486.816406 C 366.714844 485.085938 365.070312 482.566406 363.304688 479.710938 C 361.605469 476.515625 361.488281 473.796875 361.546875 470.253906 C 361.777344 467.382812 362.464844 465.53125 363.960938 463.058594 C 366.175781 460.511719 368.484375 458.457031 371.589844 457.074219 C 375.460938 455.988281 379.136719 456.214844 383.039062 457.078125 C 385.835938 458.074219 387.757812 459.433594 389.859375 461.519531 C 391.863281 464.097656 392.824219 466.613281 393.316406 469.832031 C 393.3125 471.167969 393.28125 472.5 393.222656 473.832031 C 393.117188 475.691406 393.117188 475.691406 393.316406 477.359375 C 394.945312 479.179688 394.945312 479.179688 397.078125 480.371094 L 398.441406 482.113281 C 399.808594 483.792969 401.042969 485.007812 402.675781 486.394531 C 405.148438 488.484375 407.402344 490.707031 409.644531 493.039062 C 416.015625 499.613281 422.21875 503.726562 430.980469 506.691406 C 436.589844 508.289062 442.46875 508.597656 448.261719 508.972656 L 451.121094 509.164062 C 458.136719 509.613281 465.140625 509.867188 472.164062 510.019531 C 511.554688 510.929688 511.554688 510.929688 525.039062 518.996094 C 529.117188 521.828125 532.761719 525.105469 536.332031 528.546875 L 537.953125 530.101562 C 540.417969 532.519531 542.75 534.996094 544.988281 537.625 C 552 545.679688 560.265625 549.824219 570.277344 553.339844 C 575.222656 554.820312 580.328125 554.683594 585.441406 554.667969 C 586.574219 554.679688 587.707031 554.691406 588.835938 554.703125 C 591.78125 554.734375 594.722656 554.742188 597.664062 554.746094 C 600.683594 554.753906 603.699219 554.78125 606.71875 554.804688 C 612.613281 554.855469 618.503906 554.878906 624.398438 554.890625 C 623.1875 552.332031 621.84375 550.644531 619.828125 548.640625 L 617.96875 546.789062 L 616.023438 544.871094 L 614.128906 542.976562 C 610.847656 539.71875 607.503906 536.589844 604 533.574219 C 601.558594 531.414062 599.296875 529.085938 597.019531 526.757812 C 596.105469 525.824219 595.1875 524.894531 594.273438 523.964844 L 593.074219 522.738281 C 592.039062 521.6875 592.039062 521.6875 590.527344 521.019531 L 590.527344 519.511719 L 589.019531 519.511719 L 589.019531 518.007812 L 587.671875 517.402344 C 585.957031 516.472656 584.871094 515.527344 583.519531 514.132812 L 582.09375 512.679688 L 580.574219 511.105469 L 577.320312 507.796875 C 575.625 506.066406 573.929688 504.328125 572.242188 502.589844 C 564.363281 494.488281 557.449219 487.714844 546.570312 483.929688 C 542.640625 482.832031 538.820312 482.519531 534.75 482.429688 L 533.191406 482.390625 C 532.078125 482.367188 530.96875 482.339844 529.855469 482.316406 C 528.089844 482.277344 526.320312 482.238281 524.554688 482.191406 C 519.53125 482.066406 514.511719 481.949219 509.488281 481.839844 C 506.40625 481.769531 503.328125 481.695312 500.246094 481.617188 C 499.082031 481.589844 497.917969 481.5625 496.753906 481.539062 C 487.160156 481.34375 478.125 480.773438 469.339844 476.609375 L 467.949219 475.976562 C 456.144531 470.554688 447.894531 462.4375 439.375 452.808594 C 437.460938 450.730469 435.414062 448.921875 433.253906 447.109375 C 431.398438 445.476562 429.675781 443.742188 427.941406 441.984375 C 425.320312 439.332031 422.65625 436.839844 419.796875 434.460938 C 418.445312 433.214844 417.285156 431.980469 416.089844 430.59375 C 413.894531 428.101562 411.792969 425.910156 409.121094 423.917969 C 406.578125 423.527344 404.734375 423.769531 402.222656 424.277344 C 399.46875 424.785156 397.382812 424.332031 394.699219 423.667969 C 393.316406 423.164062 393.316406 423.164062 391.058594 421.660156 L 391.058594 420.152344 L 388.796875 419.402344 C 387.097656 417.339844 385.988281 415.113281 385.035156 412.625 C 384.457031 409.160156 384.535156 405.988281 385.5625 402.617188 C 386.75 399.957031 388.085938 398.285156 390.164062 396.207031 C 393.335938 394.03125 396.433594 392.769531 400.089844 391.550781 C 404.574219 392.378906 408.574219 393.9375 412.132812 396.820312 C 414.03125 398.929688 415.613281 400.949219 416.648438 403.59375 C 416.65625 405.195312 416.609375 406.792969 416.507812 408.394531 C 416.4375 410.980469 416.4375 410.980469 416.648438 413.378906 C 418.101562 415.832031 419.605469 417.199219 421.730469 419.035156 C 425.457031 422.269531 429.066406 425.605469 432.644531 429 C 436.363281 432.515625 440.09375 436.007812 443.886719 439.441406 C 447.308594 442.5625 450.628906 445.773438 453.910156 449.039062 L 455.25 450.371094 C 457.082031 452.207031 458.785156 454.003906 460.382812 456.054688 C 463.59375 459.953125 468.222656 462.273438 472.816406 464.207031 C 478.816406 466.402344 484.125 467.636719 490.523438 467.761719 L 492.09375 467.796875 C 493.214844 467.820312 494.335938 467.84375 495.453125 467.863281 C 497.238281 467.898438 499.023438 467.9375 500.804688 467.980469 C 505.875 468.097656 510.945312 468.210938 516.015625 468.308594 C 519.125 468.367188 522.234375 468.4375 525.34375 468.515625 C 526.515625 468.542969 527.691406 468.566406 528.863281 468.585938 C 540.480469 468.78125 551.464844 470.171875 561.828125 475.878906 C 567.847656 479.542969 572.519531 484.722656 577.402344 489.734375 C 579.171875 491.539062 580.945312 493.339844 582.71875 495.140625 L 584.003906 496.445312 C 586.644531 499.109375 589.359375 501.636719 592.222656 504.066406 C 595 506.484375 597.523438 509.167969 600.09375 511.796875 C 602.292969 514.023438 604.519531 516.160156 606.898438 518.195312 C 611.320312 522.011719 615.359375 526.238281 619.457031 530.394531 C 623.253906 534.238281 627.066406 537.996094 631.171875 541.507812 C 634.242188 544.238281 637.085938 547.210938 639.96875 550.136719 C 641.210938 551.398438 642.453125 552.65625 643.695312 553.910156 L 645.335938 555.578125 C 647 557.21875 647 557.21875 649.066406 558.761719 L 650.742188 560.160156 L 650.742188 561.664062 L 652.101562 562.285156 C 653.707031 563.144531 654.808594 564.003906 656.121094 565.25 L 657.460938 566.515625 L 658.882812 567.875 L 660.371094 569.277344 C 662.453125 571.238281 664.523438 573.210938 666.589844 575.1875 C 667.597656 576.148438 668.605469 577.109375 669.613281 578.066406 C 670.558594 578.964844 671.496094 579.863281 672.429688 580.769531 L 673.746094 582.019531 L 674.878906 583.105469 C 676.984375 584.753906 679.265625 585.964844 681.605469 587.257812 C 681.65625 580.476562 681.695312 573.699219 681.722656 566.917969 C 681.734375 563.773438 681.75 560.625 681.773438 557.476562 C 681.800781 554.433594 681.8125 551.394531 681.820312 548.355469 C 681.824219 547.195312 681.832031 546.039062 681.84375 544.882812 C 681.859375 543.253906 681.863281 541.628906 681.863281 540 L 681.875 537.199219 C 681.511719 533.671875 680.433594 530.839844 678.367188 527.910156 L 677.386719 526.878906 L 676.28125 525.699219 L 675.113281 524.5 C 674.511719 523.867188 674.511719 523.867188 673.898438 523.21875 C 672.710938 521.976562 671.515625 520.742188 670.3125 519.511719 L 668.425781 517.558594 C 665.949219 515.039062 663.429688 512.636719 660.753906 510.332031 C 656.628906 506.746094 652.847656 502.835938 649.019531 498.941406 C 645.929688 495.820312 642.785156 492.828125 639.453125 489.960938 C 636.734375 487.59375 634.125 485.105469 631.503906 482.628906 L 629.871094 481.09375 C 626.886719 478.289062 623.957031 475.433594 621.082031 472.519531 C 619.332031 470.796875 617.472656 469.207031 615.609375 467.605469 C 612.980469 465.296875 610.421875 462.917969 607.867188 460.53125 C 605.761719 458.554688 605.761719 458.554688 603.324219 457.035156 L 603.324219 455.53125 L 601.964844 454.921875 C 600.296875 454.015625 599.238281 453.117188 597.925781 451.757812 L 596.59375 450.40625 L 595.230469 448.992188 C 592.03125 445.695312 588.765625 442.5625 585.285156 439.5625 C 582.125 436.792969 579.117188 433.859375 576.09375 430.949219 C 571.367188 426.273438 571.367188 426.273438 565.472656 423.472656 C 563.1875 423.128906 561.003906 423.058594 558.691406 423.046875 L 555.832031 423.023438 L 554.316406 423.015625 C 552.730469 423.003906 551.144531 422.992188 549.5625 422.976562 C 545.058594 422.929688 540.554688 422.886719 536.050781 422.863281 C 533.289062 422.847656 530.527344 422.820312 527.765625 422.785156 C 526.722656 422.777344 525.683594 422.769531 524.640625 422.765625 C 514.195312 422.742188 504.578125 421.484375 495.300781 416.5 C 488.636719 412.539062 482.496094 407.601562 477.648438 401.535156 C 476.300781 400.039062 474.953125 398.800781 473.425781 397.5 C 469.945312 394.472656 466.675781 391.265625 463.410156 388.007812 L 461.566406 386.167969 C 460.289062 384.894531 459.011719 383.621094 457.738281 382.347656 C 455.777344 380.390625 453.8125 378.4375 451.847656 376.484375 L 448.121094 372.765625 L 446.332031 370.992188 L 444.703125 369.355469 L 443.257812 367.914062 L 442.242188 366.710938 L 442.242188 365.207031 L 440.203125 365.339844 C 435.71875 365.503906 431.71875 365.601562 427.5625 363.746094 C 424.441406 361.898438 422.25 359.804688 420.414062 356.667969 C 419.21875 353.5 419.101562 350.621094 419.265625 347.261719 C 419.863281 343.648438 421.171875 340.972656 423.421875 338.109375 C 425.441406 336.035156 426.9375 335.195312 429.632812 334.15625 C 434.011719 333.28125 437.636719 333.152344 441.960938 334.34375 C 445.261719 336.300781 447.546875 338.757812 449.769531 341.871094 C 450.574219 344.289062 450.378906 345.996094 450.167969 348.496094 C 449.972656 351.363281 449.871094 354.109375 450.519531 356.925781 C 452.8125 360.113281 455.667969 362.132812 458.800781 364.453125 C 459.777344 365.488281 460.71875 366.554688 461.625 367.652344 C 463.210938 369.539062 464.800781 371.167969 466.703125 372.734375 C 468.574219 374.273438 470.136719 375.859375 471.691406 377.71875 C 474.847656 381.445312 478.460938 384.640625 482.070312 387.914062 C 484.675781 390.28125 487.15625 392.753906 489.578125 395.308594 C 496.304688 402.34375 503.539062 406.527344 512.890625 409.273438 C 514.746094 409.667969 516.472656 409.738281 518.367188 409.769531 L 520.695312 409.816406 L 523.195312 409.855469 L 525.761719 409.902344 C 528.46875 409.949219 531.175781 409.996094 533.882812 410.039062 L 539.390625 410.136719 C 543.890625 410.21875 548.390625 410.296875 552.890625 410.367188 C 551.1875 407.367188 549.578125 405.722656 546.867188 403.59375 C 545.964844 402.5 545.070312 401.398438 544.179688 400.292969 C 543 398.957031 541.734375 397.847656 540.371094 396.695312 C 536.960938 393.746094 533.789062 390.597656 530.621094 387.394531 L 528.835938 385.597656 C 526.972656 383.726562 525.113281 381.851562 523.253906 379.976562 C 520.785156 377.492188 518.320312 375.007812 515.847656 372.527344 L 514.132812 370.792969 L 512.550781 369.199219 L 511.15625 367.796875 C 510.019531 366.640625 510.019531 366.640625 508.480469 365.957031 L 508.480469 364.453125 L 507.257812 363.9375 C 502.511719 361.3125 499.359375 357.644531 496.4375 353.164062 C 493.003906 347.128906 490.6875 340.902344 488.769531 334.253906 C 488.34375 332.789062 487.90625 331.324219 487.464844 329.863281 C 485.847656 324.371094 484.507812 318.929688 483.640625 313.269531 L 482.207031 313.1875 C 479.238281 312.996094 477.109375 312.636719 474.421875 311.292969 C 471.996094 309.199219 470.195312 307 468.585938 304.234375 C 467.417969 300.734375 467.488281 297.355469 467.832031 293.699219 C 468.675781 290.597656 470.089844 288.445312 472.332031 286.160156 C 476.085938 282.796875 476.085938 282.796875 478.371094 281.65625 C 482.273438 281.316406 485.769531 281.378906 489.523438 282.546875 C 492.785156 284.40625 495.382812 285.996094 497.386719 289.1875 C 499.097656 292.632812 499.875 295.710938 499.699219 299.558594 C 499.277344 302.34375 498.339844 304.675781 497.191406 307.246094 L 496.4375 308 C 496.539062 312.523438 497.609375 316.820312 498.914062 321.125 L 499.4375 322.871094 C 499.800781 324.078125 500.167969 325.285156 500.535156 326.492188 C 501.089844 328.316406 501.632812 330.144531 502.164062 331.976562 C 504.011719 338.125 505.800781 343.640625 509.984375 348.644531 L 511.019531 349.914062 C 514.59375 354.121094 518.484375 358.019531 522.710938 361.5625 C 525.089844 363.652344 527.28125 365.921875 529.5 368.175781 C 531.519531 370.214844 533.578125 372.148438 535.765625 374.003906 C 538.289062 376.152344 540.382812 378.515625 542.523438 381.039062 C 544.304688 383.011719 546.273438 384.683594 548.296875 386.394531 C 550.03125 387.921875 551.648438 389.527344 553.265625 391.175781 C 556.714844 394.664062 560.347656 397.863281 564.089844 401.027344 L 565.449219 402.183594 L 566.636719 403.175781 C 568.398438 404.75 570.042969 406.4375 571.707031 408.109375 L 572.90625 409.3125 L 575.539062 411.960938 C 577.566406 414 579.597656 416.035156 581.628906 418.074219 C 582.695312 419.144531 583.761719 420.214844 584.824219 421.285156 C 586.375 422.84375 587.929688 424.402344 589.480469 425.957031 C 589.949219 426.429688 590.417969 426.902344 590.898438 427.386719 C 593.726562 430.210938 596.660156 432.917969 599.699219 435.511719 C 602.269531 437.773438 604.613281 440.261719 606.980469 442.726562 C 608.761719 444.546875 609.902344 445.679688 612.355469 446.5 C 612.324219 440.875 612.269531 435.253906 612.199219 429.628906 C 612.175781 427.71875 612.160156 425.808594 612.152344 423.898438 C 612.132812 421.140625 612.101562 418.382812 612.0625 415.625 L 612.058594 413.074219 C 611.929688 405.960938 610.339844 399.617188 606.757812 393.433594 C 604.414062 390.175781 601.535156 387.550781 598.554688 384.894531 C 593.882812 380.71875 589.5 376.265625 585.105469 371.800781 C 582.527344 369.195312 579.957031 366.640625 577.164062 364.261719 C 572.542969 360.292969 568.328125 355.882812 564.039062 351.5625 L 561.390625 348.902344 C 559.40625 346.910156 557.425781 344.917969 555.445312 342.925781 C 554.410156 341.886719 553.371094 340.847656 552.332031 339.8125 C 547.570312 335.03125 544.496094 329.535156 542.636719 323.042969 C 540.800781 315.425781 541.265625 307.449219 541.273438 299.660156 C 541.257812 290.441406 540.59375 282.199219 537.835938 273.375 L 536.273438 273.164062 C 532.746094 272.660156 529.945312 271.917969 527.015625 269.847656 C 524.789062 267.984375 523.078125 266.136719 521.792969 263.519531 C 520.554688 260.085938 520.242188 256.96875 520.855469 253.363281 C 521.652344 250.328125 522.695312 247.925781 524.335938 245.242188 C 527.332031 242.5625 530.15625 241.164062 534.074219 240.253906 C 537.765625 239.949219 540.882812 240.351562 544.277344 241.863281 C 547.117188 243.566406 549.347656 245.390625 551.054688 248.253906 C 552.707031 252.222656 552.644531 256.363281 552.136719 260.578125 C 551.714844 261.796875 551.257812 263.003906 550.773438 264.203125 C 550.058594 266.03125 550.058594 266.03125 549.878906 268.105469 C 550.59375 271.113281 551.535156 273.800781 552.667969 276.675781 C 554.445312 281.625 554.496094 286.507812 554.503906 291.699219 C 554.515625 293.070312 554.53125 294.445312 554.546875 295.816406 C 554.566406 297.945312 554.585938 300.078125 554.585938 302.210938 C 554.59375 311.191406 554.921875 319.355469 558.914062 327.570312 C 561.285156 330.839844 563.890625 333.554688 566.953125 336.183594 C 570.992188 339.652344 574.765625 343.335938 578.507812 347.117188 L 580.410156 349.03125 C 583.078125 351.710938 585.738281 354.390625 588.398438 357.070312 C 590.351562 359.039062 592.308594 361.003906 594.265625 362.972656 L 596.0625 364.785156 C 599.1875 367.925781 602.371094 370.945312 605.742188 373.828125 C 612.460938 379.632812 618.628906 385.535156 622.140625 393.808594 L 622.957031 395.683594 C 626.144531 404.351562 625.632812 413.394531 625.667969 422.507812 C 625.699219 425.847656 625.734375 429.191406 625.769531 432.53125 L 625.796875 434.976562 C 625.855469 440.027344 625.96875 445.070312 626.203125 450.117188 L 626.269531 451.859375 C 626.425781 454.878906 626.6875 457.386719 628.160156 460.046875 C 629.816406 461.890625 629.816406 461.890625 631.925781 463.8125 C 632.835938 464.71875 633.742188 465.628906 634.644531 466.539062 C 637.40625 469.316406 640.171875 472.089844 642.9375 474.863281 C 644.128906 476.058594 645.316406 477.253906 646.507812 478.449219 C 648.230469 480.183594 649.957031 481.914062 651.683594 483.644531 L 653.285156 485.257812 C 655.382812 487.355469 657.429688 489.335938 659.765625 491.175781 L 661.28125 492.414062 L 661.28125 493.921875 L 662.539062 494.453125 C 664.753906 495.679688 666.394531 497.226562 668.246094 498.953125 L 670.449219 500.976562 C 671.75 502.1875 673.042969 503.410156 674.320312 504.644531 L 675.867188 506.105469 L 677.199219 507.40625 L 678.59375 508.222656 C 680.609375 508.039062 680.609375 508.039062 682.359375 507.46875 L 681.988281 506.25 C 681.523438 504.074219 681.515625 502.070312 681.523438 499.839844 L 681.527344 496.972656 L 681.542969 493.824219 L 681.550781 490.507812 C 681.554688 488.128906 681.5625 485.746094 681.570312 483.367188 C 681.585938 479.59375 681.59375 475.824219 681.597656 472.050781 C 681.617188 461.324219 681.644531 450.601562 681.675781 439.875 C 681.695312 433.953125 681.707031 428.027344 681.714844 422.101562 C 681.722656 418.363281 681.730469 414.621094 681.75 410.878906 C 681.757812 408.539062 681.761719 406.199219 681.761719 403.859375 C 681.761719 402.78125 681.765625 401.707031 681.773438 400.628906 C 681.914062 388.832031 681.914062 388.832031 678.125 377.859375 C 674.5 372.371094 670.109375 367.800781 665.105469 363.566406 C 662.179688 361 659.492188 358.191406 656.765625 355.421875 L 655.027344 353.683594 C 653.035156 351.6875 651.042969 349.691406 649.058594 347.6875 L 645.652344 344.265625 L 643.332031 341.933594 C 639.300781 337.863281 635.253906 333.859375 630.898438 330.136719 C 629.363281 328.8125 627.933594 327.414062 626.515625 325.96875 L 625.117188 324.554688 L 623.644531 323.054688 L 621.929688 321.378906 C 620.308594 319.722656 618.808594 318.046875 617.304688 316.289062 C 612.957031 311.34375 612.957031 311.34375 607.839844 307.246094 C 604.65625 306.273438 601.648438 306.628906 598.390625 307.007812 C 595.796875 307.246094 595.796875 307.246094 593.976562 306.757812 C 590.40625 304.738281 588.382812 301.804688 586.199219 298.449219 C 584.898438 295.003906 584.773438 292.066406 585.257812 288.429688 C 586.105469 285.277344 587.3125 282.710938 589.507812 280.28125 C 591.941406 278.085938 594.171875 276.675781 597.300781 275.632812 C 600.410156 275.097656 603.226562 275.0625 606.332031 275.632812 C 610.140625 277.734375 612.917969 280.597656 615.789062 283.820312 C 617.289062 287.082031 617.519531 290.136719 617.625 293.699219 C 617.472656 294.894531 617.472656 294.894531 617.320312 296.113281 C 617.390625 298.832031 617.390625 298.832031 618.5 300.308594 C 619.796875 301.761719 621.15625 303.113281 622.570312 304.453125 L 624.105469 305.972656 C 625.730469 307.566406 627.367188 309.152344 629.007812 310.726562 C 630.097656 311.796875 631.183594 312.863281 632.265625 313.933594 C 636.554688 318.136719 640.835938 322.246094 645.472656 326.066406 C 646.289062 326.949219 647.070312 327.859375 647.828125 328.792969 C 650.441406 331.867188 653.355469 334.550781 656.347656 337.246094 C 658.75 339.40625 661.082031 341.640625 663.351562 343.941406 C 665.8125 346.4375 668.363281 348.753906 671.027344 351.027344 C 673.421875 353.171875 675.632812 355.492188 677.855469 357.8125 C 679.320312 359.347656 679.320312 359.347656 681.605469 359.9375 L 680.851562 357.679688 L 682.359375 357.679688 C 682.269531 352.894531 682.175781 348.113281 682.078125 343.332031 C 682.046875 341.703125 682.011719 340.078125 681.984375 338.449219 C 681.9375 336.113281 681.890625 333.773438 681.84375 331.4375 L 681.804688 329.226562 L 681.761719 327.171875 L 681.722656 325.363281 C 681.65625 323.660156 681.65625 323.660156 680.851562 321.546875 C 680.652344 319.195312 680.515625 316.84375 680.382812 314.484375 L 680.097656 312.515625 L 678.59375 311.761719 L 678.59375 308 L 677.089844 307.246094 L 676.335938 302.730469 L 674.832031 301.976562 C 674.332031 301.066406 673.863281 300.140625 673.417969 299.203125 C 665.222656 284.082031 649.585938 272.269531 636.484375 261.648438 C 630.898438 257.121094 625.339844 252.582031 620.070312 247.6875 L 618.894531 246.597656 C 616.808594 244.648438 614.757812 242.671875 612.71875 240.667969 L 611.390625 239.386719 C 610.546875 238.574219 609.714844 237.75 608.890625 236.917969 C 607.636719 235.664062 607.636719 235.664062 605.582031 234.234375 C 603.625 234.265625 603.625 234.265625 601.816406 234.984375 C 598.058594 235.359375 594.597656 235.386719 591.089844 233.855469 C 588.277344 232.246094 586.449219 230.179688 584.648438 227.503906 C 582.902344 224.484375 582.273438 221.960938 582.199219 218.480469 C 582.292969 216.125 582.492188 213.953125 583 211.652344 C 584.644531 209.441406 584.644531 209.441406 586.761719 207.886719 C 587.546875 207.199219 588.332031 206.511719 589.113281 205.820312 C 591.277344 204.125 591.277344 204.125 593.539062 203.371094 C 597.332031 203.058594 601.289062 202.773438 604.976562 203.859375 C 608.371094 205.644531 611.050781 208.460938 613.109375 211.652344 C 615.089844 216.742188 614.519531 221.351562 613.859375 226.707031 L 615.191406 227.308594 C 616.941406 228.25 618.21875 229.289062 619.6875 230.625 C 622.726562 233.34375 625.851562 235.9375 629.007812 238.515625 C 634.011719 242.613281 638.960938 246.777344 643.859375 251.003906 L 645.023438 252.003906 C 645.886719 252.757812 646.742188 253.515625 647.589844 254.285156 L 648.972656 255.519531 L 650.21875 256.652344 C 651.644531 257.671875 652.8125 257.941406 654.507812 258.320312 C 654.511719 252.1875 654.496094 246.058594 654.445312 239.925781 C 654.425781 237.082031 654.410156 234.234375 654.417969 231.386719 C 654.421875 228.640625 654.40625 225.890625 654.371094 223.144531 C 654.363281 222.09375 654.363281 221.046875 654.371094 220 C 654.390625 216.914062 654.375 213.925781 653.753906 210.898438 C 652.34375 209.179688 651.332031 208.769531 649.238281 207.886719 L 649.238281 206.382812 L 647.734375 206.382812 C 645.625 203.121094 644.238281 200.472656 643.949219 196.570312 C 643.992188 193.390625 644.917969 190.894531 646.371094 188.09375 C 648.097656 185.214844 649.792969 182.839844 652.71875 181.121094 C 656.6875 179.457031 660.828125 179.566406 665.046875 180.039062 M 783.972656 180.789062 C 787.070312 181.777344 789.046875 183.601562 791.3125 185.917969 C 793.414062 188.890625 794.996094 191.550781 795.480469 195.214844 C 795.613281 198.640625 795.222656 201.757812 793.902344 204.933594 C 792.167969 207.734375 789.621094 209.722656 786.984375 211.652344 L 785.480469 212.40625 C 784.722656 215.101562 784.636719 217.675781 784.640625 220.464844 L 784.640625 223.023438 L 784.652344 225.757812 L 784.65625 228.574219 C 784.660156 231.039062 784.667969 233.503906 784.675781 235.96875 C 784.683594 238.484375 784.6875 241.003906 784.691406 243.519531 C 784.699219 248.453125 784.710938 253.386719 784.726562 258.320312 C 788.21875 257.050781 790.46875 255.1875 793.101562 252.628906 C 797.421875 248.53125 801.90625 244.726562 806.554688 241.007812 C 808.601562 239.339844 810.648438 237.667969 812.6875 235.992188 C 814.226562 234.730469 815.777344 233.480469 817.339844 232.242188 L 819.820312 230.234375 L 822.109375 228.410156 C 823.914062 226.886719 823.914062 226.886719 824.523438 225.136719 C 824.6875 223.511719 824.6875 223.511719 824.199219 221.203125 C 823.816406 217.980469 824.191406 216.171875 825.375 213.15625 C 826.714844 210.539062 828.285156 208.582031 830.570312 206.722656 C 833.058594 205.121094 835.210938 204.230469 838.144531 203.789062 C 841.734375 203.65625 844.925781 203.84375 848.238281 205.300781 C 851.296875 207.097656 853.476562 209.503906 855.480469 212.40625 C 856.8125 214.761719 857 216.308594 857.222656 219.039062 C 857.121094 222.40625 856.265625 225.222656 854.730469 228.210938 C 852.984375 230.804688 851.148438 232.832031 848.519531 234.515625 C 845.269531 236.070312 842.183594 235.667969 838.6875 235.457031 C 836.445312 235.332031 834.355469 235.296875 832.148438 235.738281 C 829.382812 237.207031 827.464844 239.320312 825.375 241.621094 L 823.867188 243.265625 L 822.363281 243.265625 L 821.609375 245.523438 C 820.070312 246.933594 820.070312 246.933594 818.035156 248.535156 L 815.757812 250.355469 L 814.546875 251.316406 C 812.527344 252.945312 810.554688 254.621094 808.578125 256.296875 L 807.34375 257.34375 C 803 261.03125 798.675781 264.742188 794.351562 268.457031 C 792.523438 270.023438 790.691406 271.589844 788.859375 273.152344 C 787.113281 274.648438 785.371094 276.148438 783.628906 277.652344 C 782.59375 278.535156 781.554688 279.410156 780.511719 280.285156 C 771.925781 287.621094 766.453125 296.503906 762.628906 307.050781 C 760.976562 312.324219 759.800781 317.152344 759.769531 322.695312 L 759.746094 325.703125 L 759.734375 328.992188 L 759.710938 332.464844 C 759.691406 335.601562 759.671875 338.738281 759.660156 341.878906 C 759.640625 345.160156 759.621094 348.441406 759.601562 351.722656 C 759.5625 357.933594 759.53125 364.144531 759.496094 370.355469 C 759.460938 377.425781 759.417969 384.496094 759.378906 391.570312 C 759.292969 406.117188 759.210938 420.664062 759.132812 435.207031 C 761.394531 433.878906 763.371094 432.664062 765.195312 430.773438 L 766.414062 429.53125 L 767.648438 428.246094 C 770.148438 425.664062 772.652344 423.160156 775.390625 420.832031 C 779.160156 417.554688 782.648438 414.019531 786.15625 410.464844 L 789.316406 407.285156 C 791.890625 404.691406 794.460938 402.097656 797.027344 399.5 C 798.480469 398.03125 799.9375 396.566406 801.390625 395.101562 C 802.757812 393.726562 804.121094 392.347656 805.484375 390.964844 L 807.34375 389.101562 L 808.976562 387.445312 L 810.320312 386.28125 L 811.824219 386.28125 C 812.359375 374.183594 812.832031 362.085938 812.964844 349.972656 C 812.988281 348.28125 813.023438 346.589844 813.074219 344.898438 C 813.140625 342.398438 813.171875 339.898438 813.191406 337.398438 L 813.277344 335.128906 C 813.273438 332.953125 813.171875 331.167969 812.578125 329.074219 C 811.191406 327.253906 809.75 325.835938 808 324.367188 C 806.507812 323.011719 805.820312 321.933594 805.050781 320.089844 C 804.066406 316.796875 803.792969 313.660156 804.296875 310.257812 C 805.175781 306.96875 806.441406 304.414062 808.769531 301.914062 C 811 299.902344 812.71875 298.417969 815.589844 297.460938 C 819.960938 297.105469 823.980469 296.8125 828.007812 298.683594 C 830.902344 301.433594 833.664062 304.230469 835.160156 308 C 835.644531 312.140625 835.882812 316.453125 834.5 320.433594 C 832.925781 323.140625 831.160156 324.84375 828.574219 326.582031 L 826.125 328.324219 C 825.335938 330.9375 825.28125 333.457031 825.289062 336.175781 L 825.289062 338.59375 L 825.300781 341.179688 L 825.304688 343.847656 C 825.308594 346.65625 825.316406 349.460938 825.324219 352.269531 C 825.332031 354.171875 825.332031 356.078125 825.335938 357.984375 C 825.34375 362.648438 825.355469 367.3125 825.375 371.980469 C 827.648438 370.679688 829.609375 369.433594 831.433594 367.546875 L 832.652344 366.300781 L 833.890625 365.019531 C 836.433594 362.386719 838.996094 359.839844 841.773438 357.453125 C 845.53125 354.207031 849.015625 350.703125 852.519531 347.1875 L 854.476562 345.238281 C 858.230469 341.476562 861.816406 337.628906 865.265625 333.589844 L 866.914062 331.757812 C 869.707031 327.808594 871.445312 323.160156 872.792969 318.539062 C 872.9375 316.761719 873.007812 314.980469 873.027344 313.199219 L 873.085938 310.09375 C 873.105469 308.492188 873.125 306.890625 873.136719 305.289062 C 873.242188 295.585938 874.027344 286.21875 878.722656 277.515625 L 879.464844 276.03125 C 880.738281 273.578125 882.082031 271.488281 883.910156 269.410156 L 885.589844 267.351562 C 885.507812 264.824219 885.507812 264.824219 884.835938 262.082031 C 884.457031 258.148438 884.554688 254.691406 886.015625 250.980469 C 887.460938 248.089844 889.214844 246.089844 891.78125 244.132812 C 894.972656 242.058594 897.945312 241.632812 901.679688 241.429688 C 904.578125 241.5 906.671875 241.839844 909.207031 243.265625 C 912.234375 245.441406 914.078125 248.222656 915.699219 251.546875 C 916.796875 254.835938 916.808594 257.890625 916.453125 261.332031 C 915.601562 264.25 914.277344 266.460938 912.199219 268.675781 C 909.769531 270.875 907.574219 272.402344 904.410156 273.375 C 902.949219 273.296875 901.492188 273.203125 900.035156 273.09375 C 897.613281 273.105469 897.613281 273.105469 895.375 274.128906 C 892.460938 277.554688 890.9375 282.015625 889.355469 286.171875 L 888.554688 287.820312 C 887.574219 290.753906 887.542969 293.546875 887.453125 296.625 L 887.292969 300.601562 C 887.214844 302.671875 887.144531 304.746094 887.074219 306.816406 C 886.566406 321.550781 886.566406 321.550781 884.085938 327.570312 L 883.136719 330.1875 C 879.621094 337.949219 874.203125 343.125 868.042969 348.902344 C 866.667969 350.203125 866.667969 350.203125 865.277344 352.054688 C 863.980469 353.644531 862.796875 354.789062 861.246094 356.101562 C 858.214844 358.695312 855.398438 361.460938 852.589844 364.289062 L 851.179688 365.703125 C 849.726562 367.167969 848.277344 368.632812 846.824219 370.097656 C 835.742188 381.296875 835.742188 381.296875 831.125 385.210938 C 828.734375 387.285156 826.578125 389.589844 824.390625 391.875 C 823.492188 392.796875 822.554688 393.683594 821.609375 394.5625 L 820.105469 394.5625 L 819.523438 395.914062 C 818.503906 397.742188 817.484375 398.695312 815.871094 400.019531 C 812.582031 402.800781 809.570312 405.789062 806.554688 408.863281 C 805.554688 409.882812 804.550781 410.902344 803.542969 411.921875 L 802.226562 413.265625 C 800.773438 414.65625 799.289062 415.96875 797.765625 417.285156 C 794.246094 420.34375 790.9375 423.59375 787.632812 426.878906 L 785.710938 428.785156 C 784.382812 430.113281 783.050781 431.4375 781.722656 432.761719 C 779.695312 434.78125 777.664062 436.792969 775.628906 438.800781 L 771.734375 442.6875 L 769.902344 444.488281 C 766.132812 448.269531 762.6875 451.953125 760.84375 457.046875 C 759.503906 462.15625 759.625 467.4375 759.574219 472.683594 L 759.53125 475.640625 C 759.492188 478.214844 759.464844 480.785156 759.433594 483.359375 C 759.40625 485.992188 759.367188 488.625 759.328125 491.261719 C 759.257812 496.414062 759.191406 501.5625 759.132812 506.714844 C 760.941406 506.464844 760.941406 506.464844 762.898438 505.964844 C 764.398438 504.710938 765.820312 503.375 767.171875 501.960938 L 768.375 500.734375 C 769.644531 499.441406 770.90625 498.140625 772.164062 496.835938 C 773.820312 495.136719 775.480469 493.441406 777.144531 491.75 L 778.351562 490.515625 C 780.957031 487.863281 783.636719 485.355469 786.5 482.980469 C 787.925781 481.707031 789.136719 480.324219 790.371094 478.867188 C 792.507812 476.351562 794.785156 474.253906 797.296875 472.125 C 799.855469 469.851562 802.238281 467.410156 804.625 464.960938 C 806.609375 462.941406 808.636719 461.039062 810.789062 459.199219 C 815.121094 455.453125 819.09375 451.324219 823.117188 447.25 C 831.996094 438.253906 831.996094 438.253906 836.769531 434.183594 C 839.371094 431.894531 841.765625 429.398438 844.191406 426.929688 C 847.667969 423.382812 851.191406 419.976562 854.980469 416.761719 C 856.359375 415.589844 856.359375 415.589844 857.738281 413.757812 C 859.023438 412.152344 860.15625 411.058594 861.714844 409.757812 C 866.539062 405.582031 870.949219 400.976562 875.429688 396.445312 C 885.621094 386.132812 885.621094 386.132812 890.300781 382.15625 C 892.613281 380.140625 894.738281 377.9375 896.882812 375.742188 C 899.515625 373.050781 902.164062 370.429688 905.019531 367.96875 C 908.734375 364.757812 912.21875 361.328125 915.699219 357.867188 L 917.640625 355.972656 C 925.824219 347.839844 930.347656 340.171875 933.925781 329.316406 C 934.574219 327.371094 935.234375 325.429688 935.914062 323.496094 C 936.335938 322.246094 936.757812 321 937.179688 319.75 L 937.78125 318.015625 C 938.695312 315.1875 939.039062 313.351562 938.808594 310.332031 C 938.375 308.417969 937.902344 306.773438 937.105469 304.988281 C 935.976562 302.101562 935.6875 299.835938 936.023438 296.707031 C 936.652344 293.84375 937.621094 291.542969 939.417969 289.214844 C 941.453125 287.042969 943.433594 285.488281 945.996094 283.960938 C 949.78125 282.886719 953.195312 282.644531 957.097656 283.160156 C 959.980469 284.148438 961.960938 285.742188 964.0625 287.957031 L 965.378906 289.933594 L 966.695312 291.863281 C 968.113281 295.757812 968.109375 299.386719 967.636719 303.484375 C 966.660156 306.972656 964.839844 309.519531 962.273438 312.046875 C 960.046875 313.832031 958.050781 314.488281 955.265625 315.054688 C 954.121094 315.230469 952.976562 315.394531 951.828125 315.527344 L 951.21875 317.527344 C 949.21875 323.996094 947.164062 330.449219 945.054688 336.886719 L 944.324219 339.160156 C 942.097656 345.921875 939.625 352.210938 934.660156 357.445312 L 933.578125 358.585938 C 930.289062 362.007812 926.808594 365.222656 923.316406 368.433594 C 916.785156 374.488281 910.554688 380.851562 904.292969 387.175781 C 900.332031 391.167969 896.390625 395.117188 892.105469 398.765625 C 890.234375 400.367188 888.476562 402.058594 886.71875 403.78125 L 884.765625 405.675781 L 883.332031 407.359375 L 883.332031 409.617188 C 888.542969 409.636719 893.75 409.648438 898.957031 409.65625 C 900.726562 409.660156 902.496094 409.667969 904.265625 409.671875 C 906.816406 409.683594 909.371094 409.6875 911.925781 409.691406 L 914.292969 409.699219 C 924.265625 409.800781 924.265625 409.800781 933.8125 407.3125 L 935.859375 406.484375 C 942.253906 402.828125 947.527344 397.574219 952.667969 392.367188 L 954.53125 390.492188 C 956.472656 388.542969 958.410156 386.589844 960.34375 384.636719 L 964.28125 380.679688 C 966.683594 378.265625 969.082031 375.851562 971.476562 373.433594 C 973.703125 371.1875 975.9375 368.945312 978.175781 366.710938 L 979.945312 364.914062 L 981.65625 363.183594 L 983.378906 361.433594 C 984.949219 359.9375 984.949219 359.9375 987.207031 358.429688 C 987.339844 355.984375 987.339844 355.984375 987.113281 353.164062 C 987 349.480469 987.148438 346.351562 988.710938 342.953125 C 990.5 339.886719 992.679688 337.890625 995.585938 335.894531 C 998.082031 334.480469 1000.289062 334.167969 1003.109375 334.0625 C 1006.175781 334.101562 1008.449219 334.476562 1011.199219 335.851562 C 1014.101562 337.671875 1015.746094 339.757812 1017.410156 342.722656 C 1018.671875 345.417969 1019.03125 347.742188 1018.984375 350.714844 C 1018.695312 353.734375 1017.878906 356.453125 1016.5625 359.183594 C 1014.554688 361.550781 1012.371094 363.484375 1009.789062 365.207031 C 1007.53125 365.957031 1007.53125 365.957031 1005.375 365.824219 C 1002.429688 365.710938 999.769531 365.691406 996.992188 366.710938 C 992.273438 369.929688 988.445312 374.609375 985.027344 379.144531 C 983.640625 380.78125 982.292969 382.046875 980.667969 383.425781 C 977.652344 386.042969 974.835938 388.804688 972.046875 391.664062 C 971.046875 392.679688 970.042969 393.695312 969.039062 394.707031 C 967.492188 396.277344 965.949219 397.851562 964.40625 399.425781 C 948.566406 415.605469 948.566406 415.605469 938.28125 419.402344 L 936.710938 420.050781 C 931.882812 422.003906 927.15625 422.5 921.949219 422.542969 L 919.011719 422.574219 L 917.460938 422.585938 C 915.84375 422.597656 914.226562 422.613281 912.609375 422.632812 C 908.011719 422.6875 903.414062 422.730469 898.8125 422.769531 C 895.992188 422.796875 893.167969 422.824219 890.347656 422.863281 C 889.28125 422.875 888.214844 422.882812 887.144531 422.890625 C 879.101562 422.9375 871.484375 423.234375 864.277344 427.089844 C 857.328125 431.710938 851.523438 438.316406 845.710938 444.253906 C 843.617188 446.378906 841.492188 448.40625 839.21875 450.339844 C 834.609375 454.324219 830.402344 458.730469 826.125 463.058594 C 816.398438 472.902344 816.398438 472.902344 811.691406 476.90625 C 809.097656 479.183594 806.710938 481.671875 804.296875 484.132812 C 801.445312 487.042969 798.605469 489.910156 795.503906 492.554688 C 790.894531 496.523438 786.695312 500.933594 782.421875 505.257812 C 780.707031 506.992188 778.988281 508.726562 777.265625 510.457031 L 776.03125 511.703125 C 773.960938 513.769531 771.871094 515.753906 769.617188 517.628906 C 767.550781 519.394531 766.105469 521.03125 764.589844 523.277344 L 763.332031 525.109375 C 761.484375 528.113281 760 530.574219 759.585938 534.128906 L 759.5625 536.972656 L 759.539062 538.554688 C 759.515625 540.265625 759.507812 541.976562 759.5 543.6875 C 759.488281 544.878906 759.476562 546.070312 759.460938 547.261719 C 759.425781 550.386719 759.402344 553.515625 759.382812 556.640625 C 759.359375 559.832031 759.324219 563.027344 759.292969 566.222656 C 759.226562 572.480469 759.175781 578.738281 759.132812 585 C 760.148438 584.78125 761.152344 584.53125 762.144531 584.246094 C 763.433594 583.039062 763.433594 583.039062 764.589844 581.515625 C 766.199219 579.5 767.875 577.804688 769.84375 576.15625 C 774.382812 572.207031 778.574219 567.902344 782.808594 563.636719 C 784.378906 562.058594 785.949219 560.484375 787.523438 558.90625 C 790.855469 555.5625 794.191406 552.214844 797.523438 548.867188 C 801.386719 544.984375 805.253906 541.101562 809.125 537.222656 C 810.664062 535.679688 812.199219 534.136719 813.738281 532.585938 C 817.859375 528.449219 821.960938 524.34375 826.414062 520.558594 C 828.308594 518.929688 830.039062 517.171875 831.792969 515.394531 L 832.890625 514.292969 C 834.023438 513.148438 835.15625 512.003906 836.289062 510.855469 C 840.558594 506.527344 844.816406 502.246094 849.445312 498.292969 C 853.410156 494.738281 857.039062 490.792969 860.71875 486.949219 C 868.683594 478.824219 877.542969 473.878906 888.460938 470.773438 C 893.109375 469.535156 897.714844 468.992188 902.519531 468.9375 L 905.363281 468.898438 L 906.859375 468.882812 C 908.433594 468.867188 910.003906 468.847656 911.578125 468.828125 C 914.925781 468.78125 918.277344 468.742188 921.625 468.703125 C 947.835938 469.726562 947.835938 469.726562 972.625 463.339844 C 982.4375 457.480469 990.230469 448.058594 998.214844 440.007812 C 1000.683594 437.515625 1003.15625 435.03125 1005.632812 432.542969 L 1007.3125 430.84375 C 1015.917969 422.199219 1015.917969 422.199219 1021.03125 419.023438 C 1022.421875 417.980469 1022.421875 417.980469 1023.335938 416.390625 C 1023.738281 413.527344 1023.808594 410.730469 1023.878906 407.839844 C 1024.078125 405.25 1024.378906 403.816406 1025.691406 401.617188 C 1027.683594 398.945312 1030.160156 396.84375 1033.121094 395.3125 C 1036.792969 394.136719 1040.613281 394.097656 1044.414062 394.5625 C 1047.78125 395.878906 1050.277344 397.980469 1052.648438 400.675781 C 1054.199219 402.839844 1054.199219 402.839844 1054.953125 405.101562 C 1055.324219 409.007812 1055.625 412.992188 1054.296875 416.734375 C 1052.585938 419.664062 1050.390625 422.089844 1047.542969 423.941406 C 1044.179688 425.453125 1040.546875 425.972656 1036.886719 426.175781 L 1034.527344 425.695312 L 1032.371094 425.421875 C 1030.78125 426.214844 1030.78125 426.214844 1029.5 427.585938 L 1027.957031 429.0625 C 1027.425781 429.601562 1026.894531 430.140625 1026.347656 430.691406 L 1024.667969 432.367188 C 1023.527344 433.511719 1022.390625 434.65625 1021.257812 435.808594 C 1019.667969 437.375 1018.027344 438.839844 1016.328125 440.289062 C 1014.695312 441.6875 1013.394531 442.929688 1012.046875 444.617188 C 1010.695312 446.308594 1009.410156 447.511719 1007.765625 448.898438 C 1005.34375 450.960938 1003.230469 453.144531 1001.132812 455.53125 C 998.667969 458.332031 996.007812 460.929688 993.144531 463.324219 C 991.726562 464.558594 990.46875 465.871094 989.183594 467.246094 C 982.65625 473.816406 972.675781 477.875 963.871094 480.371094 C 959.019531 481.121094 954.152344 481.273438 949.246094 481.363281 L 947.011719 481.410156 C 945.441406 481.441406 943.875 481.472656 942.304688 481.5 C 939.859375 481.546875 937.410156 481.597656 934.960938 481.652344 C 927.230469 481.808594 919.515625 481.898438 911.785156 481.773438 C 899.761719 481.589844 889.953125 483.441406 879.292969 489.246094 C 876.125 491.089844 873.449219 493.324219 870.84375 495.898438 C 869.355469 497.363281 867.851562 498.714844 866.269531 500.070312 C 863.109375 502.824219 860.144531 505.734375 857.199219 508.714844 L 855.597656 510.324219 C 853.925781 512.007812 852.257812 513.6875 850.589844 515.371094 C 848.386719 517.59375 846.183594 519.8125 843.980469 522.03125 L 842.484375 523.542969 C 839.578125 526.464844 836.589844 529.226562 833.445312 531.890625 C 831.96875 533.164062 831.96875 533.164062 830.265625 535.320312 C 828.808594 537.066406 827.554688 538.347656 825.84375 539.789062 C 822.070312 542.992188 818.640625 546.527344 815.179688 550.058594 C 813.046875 552.21875 810.921875 554.3125 808.574219 556.234375 C 806.480469 557.847656 806.480469 557.847656 804.863281 560.019531 L 803.542969 561.664062 L 802.039062 561.664062 L 800.535156 564.675781 L 799.027344 564.675781 L 799.027344 566.179688 C 797.945312 567.09375 796.851562 567.992188 795.746094 568.878906 C 794.226562 570.191406 793.042969 571.710938 791.792969 573.273438 C 790.628906 574.59375 789.378906 575.6875 788.03125 576.820312 C 783.894531 580.394531 780.128906 584.320312 776.316406 588.234375 L 774.664062 589.910156 L 773.179688 591.433594 L 771.929688 592.527344 L 770.425781 592.527344 L 770.425781 594.03125 L 768.917969 594.03125 L 768.300781 595.367188 C 767.425781 597.023438 766.445312 598.289062 765.25 599.722656 C 760.582031 605.886719 759.253906 613.617188 757.675781 621.035156 C 754.296875 636.214844 754.296875 636.214844 751.605469 640.699219 C 750.042969 641.550781 750.042969 641.550781 748.597656 642.203125 C 746.148438 626.296875 746.011719 610.597656 746.042969 594.542969 C 746.046875 590.808594 746.039062 587.074219 746.035156 583.339844 C 746.023438 576.050781 746.027344 568.765625 746.03125 561.480469 C 746.039062 555.558594 746.039062 549.632812 746.035156 543.710938 L 746.035156 541.144531 L 746.03125 535.984375 C 746.027344 519.902344 746.035156 503.824219 746.046875 487.742188 C 746.054688 473.960938 746.054688 460.179688 746.042969 446.402344 C 746.027344 427.789062 746.027344 409.1875 746.039062 390.589844 C 746.039062 384.671875 746.035156 378.753906 746.03125 372.839844 C 746.023438 365.628906 746.027344 358.421875 746.039062 351.210938 C 746.046875 347.539062 746.046875 343.867188 746.039062 340.191406 C 746.03125 336.824219 746.035156 333.457031 746.046875 330.089844 C 746.050781 328.878906 746.046875 327.664062 746.042969 326.449219 C 746.003906 317.03125 747.054688 308.253906 751.089844 299.625 L 751.792969 298.085938 C 752.476562 296.621094 753.164062 295.15625 753.867188 293.699219 L 754.894531 291.464844 C 758.308594 284.597656 763.566406 278.484375 769.148438 273.253906 C 770.46875 272 770.46875 272 770.871094 270.617188 C 771.289062 268.214844 771.316406 265.878906 771.359375 263.441406 L 771.390625 261.804688 C 771.484375 256.164062 771.527344 250.523438 771.566406 244.882812 C 771.585938 242.210938 771.621094 239.539062 771.671875 236.871094 C 771.734375 233.636719 771.769531 230.402344 771.777344 227.167969 C 771.789062 225.9375 771.808594 224.710938 771.835938 223.484375 C 771.925781 219.703125 771.902344 216.125 771.179688 212.40625 C 769.847656 210.210938 768.519531 208.671875 766.605469 206.976562 C 765.046875 205.527344 764.378906 204.347656 763.601562 202.382812 C 762.480469 198.214844 762.648438 194.007812 763.652344 189.824219 C 765.34375 187.613281 765.34375 187.613281 767.414062 186.058594 L 769.296875 184.039062 C 773.53125 180.121094 778.472656 180.207031 783.972656 180.789062 " fill-opacity="1" fill-rule="nonzero"/><path fill="#b89b53" d="M 1072.027344 458.683594 C 1074.679688 460.132812 1076.320312 461.527344 1078.285156 463.8125 L 1080.027344 465.789062 C 1081.574219 468.882812 1081.683594 471.121094 1081.527344 474.542969 C 1081.1875 477.566406 1080.691406 480.042969 1079.039062 482.628906 C 1077.214844 484.59375 1075.207031 486.351562 1073.015625 487.898438 C 1072.59375 488.199219 1072.171875 488.5 1071.734375 488.808594 C 1068.976562 489.757812 1066.253906 489.359375 1063.371094 489.214844 C 1058.828125 489.046875 1058.828125 489.046875 1054.527344 490.269531 C 1053.226562 491.414062 1052.242188 492.546875 1051.1875 493.921875 C 1049.9375 495.175781 1048.679688 496.429688 1047.425781 497.683594 C 1046.269531 498.894531 1045.117188 500.109375 1043.96875 501.324219 C 1030.125 515.765625 1030.125 515.765625 1021.078125 518.757812 L 1019.515625 519.296875 C 1010.59375 522.324219 1002.105469 523.308594 992.707031 523.679688 L 990.300781 523.773438 C 982.816406 524.042969 975.335938 524.136719 967.851562 524.214844 L 965.984375 524.234375 C 960.226562 524.292969 954.464844 524.34375 948.707031 524.386719 C 945.519531 524.414062 942.328125 524.441406 939.140625 524.476562 C 937.941406 524.488281 936.742188 524.5 935.546875 524.503906 C 926.402344 524.554688 918.628906 525.136719 910.402344 529.464844 C 905.367188 532.484375 900.867188 536.28125 896.882812 540.589844 L 895.671875 541.835938 C 889.578125 548.390625 885.503906 556.015625 883.28125 564.675781 C 881.699219 572.042969 881.878906 579.753906 881.828125 587.257812 L 881.769531 589.976562 C 881.703125 591.785156 881.703125 591.785156 882.578125 593.277344 C 889.785156 593.230469 896.988281 593.171875 904.195312 593.101562 C 907.539062 593.066406 910.886719 593.039062 914.230469 593.019531 C 917.46875 592.996094 920.703125 592.96875 923.941406 592.929688 C 925.167969 592.917969 926.394531 592.910156 927.625 592.902344 C 937.394531 592.863281 946.765625 591.8125 955.59375 587.257812 C 959.492188 584.648438 962.902344 581.621094 966.132812 578.222656 L 967.289062 577.113281 C 969.988281 574.511719 972.390625 571.785156 974.742188 568.863281 C 982.417969 559.386719 991.414062 551.714844 1002.847656 547.175781 C 1009.941406 544.78125 1016.960938 543.992188 1024.402344 543.828125 L 1027.179688 543.742188 C 1030.070312 543.652344 1032.960938 543.578125 1035.851562 543.503906 C 1038.769531 543.421875 1041.6875 543.339844 1044.605469 543.25 C 1046.410156 543.199219 1048.21875 543.148438 1050.023438 543.101562 L 1052.484375 543.035156 L 1054.652344 542.980469 C 1056.566406 542.914062 1056.566406 542.914062 1058.714844 542.09375 L 1059.9375 540.070312 C 1061.980469 536.792969 1065.152344 534.871094 1068.5 533.0625 C 1071.351562 532.179688 1073.789062 532.019531 1076.78125 532.308594 C 1080.808594 533.734375 1084.144531 535.582031 1086.988281 538.800781 C 1088.324219 540.476562 1088.882812 541.515625 1089.578125 543.597656 C 1090.003906 546.929688 1089.96875 549.957031 1088.894531 553.160156 C 1087.542969 556.054688 1086.09375 558.671875 1083.742188 560.863281 C 1080.324219 563.035156 1077.007812 564.5625 1072.90625 564.75 C 1070.285156 564.542969 1068.398438 563.867188 1066.101562 562.605469 C 1063.96875 560.898438 1062.042969 559.183594 1060.21875 557.148438 L 1060.21875 555.644531 L 1057.8125 555.785156 C 1051.503906 556.148438 1045.199219 556.464844 1038.886719 556.71875 C 1036.898438 556.800781 1034.910156 556.886719 1032.917969 556.972656 C 1031.570312 557.027344 1030.222656 557.078125 1028.875 557.128906 C 1018.960938 557.496094 1010.320312 558.367188 1001.367188 562.980469 L 999.796875 563.785156 C 993.167969 567.285156 988.933594 571.859375 984.328125 577.734375 C 982.636719 579.796875 980.832031 581.625 978.925781 583.492188 C 978.078125 584.375 977.226562 585.257812 976.378906 586.144531 C 964.636719 598.292969 964.636719 598.292969 957.097656 600.804688 C 956.546875 602.320312 956.546875 602.320312 956.347656 603.816406 L 957.835938 604.40625 C 959.570312 605.105469 961.292969 605.820312 963.015625 606.542969 C 974.664062 611.355469 984.542969 613.203125 997.109375 612.523438 C 1003.632812 612.171875 1010.125 612.070312 1016.660156 612.082031 C 1019.324219 612.074219 1021.992188 612.0625 1024.660156 612.050781 C 1026.4375 612.050781 1028.214844 612.058594 1029.996094 612.078125 C 1032.523438 612.101562 1035.054688 612.089844 1037.582031 612.070312 L 1039.890625 612.121094 C 1042.058594 612.085938 1043.84375 611.96875 1045.917969 611.34375 C 1047.578125 609.96875 1048.777344 608.578125 1050.035156 606.832031 C 1051.269531 605.210938 1052.503906 604.191406 1054.199219 603.0625 C 1057.59375 601.894531 1061.195312 602.007812 1064.738281 602.3125 C 1067.800781 603.265625 1069.652344 604.265625 1072.074219 606.355469 C 1074.003906 608.605469 1075.523438 610.714844 1076.546875 613.507812 C 1077.058594 617.003906 1077.019531 620.082031 1075.886719 623.433594 C 1074.625 626.433594 1073.132812 628.640625 1070.757812 630.914062 C 1067.40625 633.050781 1064.144531 634.117188 1060.171875 634.300781 C 1056.992188 634.152344 1054.527344 633.449219 1051.761719 631.878906 C 1049.59375 630.304688 1048.203125 628.597656 1046.671875 626.398438 L 1046.671875 624.890625 L 1044.121094 624.921875 C 1036.117188 625.015625 1028.113281 625.082031 1020.109375 625.125 C 1015.996094 625.148438 1011.882812 625.179688 1007.769531 625.234375 C 1003.789062 625.28125 999.804688 625.308594 995.820312 625.320312 C 994.316406 625.328125 992.8125 625.34375 991.304688 625.371094 C 977.382812 625.589844 964.941406 623.007812 952.613281 616.378906 L 950.183594 615.011719 C 946.984375 613.257812 943.769531 611.53125 940.539062 609.839844 L 938.714844 608.871094 C 934.925781 607.097656 931.324219 606.574219 927.175781 606.371094 L 925.476562 606.28125 C 919.402344 605.988281 913.335938 606.039062 907.257812 606.140625 L 903.664062 606.1875 C 901.175781 606.222656 898.683594 606.257812 896.195312 606.296875 C 893.046875 606.347656 889.898438 606.390625 886.753906 606.433594 C 884.285156 606.464844 881.816406 606.5 879.347656 606.535156 L 875.871094 606.585938 C 869.640625 606.671875 863.417969 606.84375 857.195312 607.167969 L 855.5 607.25 C 846.976562 607.734375 839.355469 610.566406 832.148438 615.105469 C 826.269531 619.296875 821.136719 624.449219 816.136719 629.632812 C 814.609375 631.140625 813.027344 632.59375 811.390625 633.984375 C 807.046875 637.746094 803.0625 641.882812 799.027344 645.96875 C 789.996094 655.117188 789.996094 655.117188 785.207031 659.203125 C 783.582031 660.609375 782.082031 662.117188 780.585938 663.65625 C 778.542969 665.734375 776.480469 667.679688 774.234375 669.539062 C 769.292969 673.777344 764.375 679.304688 761.394531 685.109375 C 759.429688 692.464844 759.722656 700.148438 759.886719 707.691406 L 762.144531 707.691406 C 763.976562 706.246094 763.976562 706.246094 765.910156 704.351562 C 768.769531 701.65625 771.683594 699.097656 774.753906 696.636719 C 777.582031 694.351562 780.191406 691.996094 782.710938 689.386719 C 784.082031 688.011719 785.515625 686.75 786.984375 685.484375 C 788.941406 683.808594 790.820312 682.050781 792.628906 680.21875 C 794.390625 678.429688 796.226562 676.71875 798.136719 675.089844 C 800.550781 673.007812 802.808594 670.820312 805.050781 668.550781 C 807.671875 665.894531 810.402344 663.363281 813.246094 660.953125 C 815.183594 659.203125 816.941406 657.316406 818.742188 655.425781 C 824.726562 649.292969 831.675781 645.261719 839.859375 642.726562 C 844.03125 641.679688 848.070312 641.328125 852.355469 641.273438 L 854.097656 641.242188 C 855.992188 641.214844 857.882812 641.1875 859.777344 641.160156 L 863.765625 641.101562 C 866.558594 641.0625 869.347656 641.027344 872.136719 640.992188 C 875.675781 640.945312 879.214844 640.890625 882.753906 640.832031 C 885.503906 640.789062 888.253906 640.75 891.003906 640.71875 C 892.308594 640.699219 893.609375 640.679688 894.914062 640.65625 C 907.332031 640.441406 920.839844 640.40625 932.101562 646.320312 C 939.203125 650.667969 945.878906 655.914062 951.972656 661.585938 C 957.738281 666.863281 963.964844 669.996094 971.398438 672.3125 L 972.652344 672.722656 C 975.195312 673.21875 977.722656 673.15625 980.304688 673.140625 L 982.011719 673.136719 C 983.804688 673.132812 985.601562 673.121094 987.394531 673.113281 C 988.613281 673.109375 989.832031 673.105469 991.054688 673.101562 C 994.035156 673.09375 997.019531 673.082031 1000.003906 673.066406 L 1000.003906 674.570312 C 1003.789062 674.742188 1007.632812 674.910156 1011.292969 673.820312 C 1013.484375 672.101562 1014.933594 670.390625 1016.542969 668.132812 C 1018.367188 665.929688 1019.9375 665.078125 1022.585938 664.035156 C 1025.710938 663.488281 1028.738281 663.605469 1031.773438 664.554688 C 1035.445312 666.234375 1038.011719 668.535156 1040.648438 671.5625 C 1041.511719 674.140625 1041.554688 676.226562 1041.589844 678.945312 L 1041.648438 681.691406 C 1041.378906 684.613281 1040.640625 686.367188 1039.144531 688.875 C 1036.792969 691.695312 1034.304688 693.570312 1030.996094 695.101562 C 1028.144531 696.050781 1025.542969 696.074219 1022.585938 695.648438 C 1018.441406 694.433594 1015.964844 692.359375 1013.015625 689.339844 L 1012.046875 688.121094 L 1012.046875 686.613281 L 1010.730469 686.636719 C 1006.152344 686.703125 1001.570312 686.75 996.992188 686.78125 C 995.289062 686.796875 993.589844 686.816406 991.886719 686.84375 C 978.46875 687.042969 966.449219 686.394531 954.386719 679.917969 C 948.273438 676.132812 942.886719 671.4375 937.457031 666.75 C 930.605469 660.859375 923.886719 656.269531 914.945312 654.25 C 910.167969 653.726562 905.347656 653.859375 900.550781 653.902344 L 896.402344 653.902344 C 893.515625 653.90625 890.632812 653.917969 887.746094 653.9375 C 884.074219 653.964844 880.398438 653.96875 876.722656 653.96875 C 873.871094 653.96875 871.019531 653.976562 868.167969 653.988281 C 866.8125 653.992188 865.460938 653.996094 864.105469 653.996094 C 849.171875 654.007812 849.171875 654.007812 835.160156 658.765625 C 829.789062 662.386719 825.3125 666.945312 820.808594 671.5625 C 816.847656 675.605469 812.894531 679.585938 808.574219 683.253906 C 807.363281 684.308594 806.253906 685.410156 805.144531 686.566406 L 803.542969 688.121094 L 802.039062 688.121094 L 803.542969 690.378906 C 805.351562 690.699219 805.351562 690.699219 807.488281 690.609375 L 809.988281 690.597656 L 812.707031 690.546875 L 815.511719 690.523438 C 817.980469 690.507812 820.453125 690.480469 822.921875 690.445312 C 826.367188 690.398438 829.8125 690.363281 833.257812 690.332031 C 835.089844 690.316406 836.921875 690.296875 838.753906 690.265625 C 849.636719 690.171875 860.0625 691.488281 869.640625 696.886719 C 877.101562 701.234375 884.136719 705.96875 891 711.203125 C 892.445312 712.222656 893.726562 713.074219 895.375 713.710938 C 897.617188 713.296875 897.617188 713.296875 899.054688 712.691406 C 902.75 711.5625 906.640625 711.675781 910.429688 712.207031 C 913.980469 713.804688 916.332031 716.398438 918.664062 719.453125 C 920.449219 722.378906 920.917969 724.113281 921.109375 727.496094 C 920.953125 730.539062 920.605469 732.707031 919.460938 735.542969 C 917.394531 738.492188 915.082031 740.886719 912.21875 743.070312 C 908.121094 744.28125 904.125 744.207031 899.890625 743.820312 C 897.34375 743.035156 896.042969 742.214844 894.160156 740.371094 C 891.945312 737.945312 890.246094 735.730469 889.355469 732.53125 L 889.351562 730.960938 C 889.21875 728.648438 888.847656 727.109375 887.847656 725.003906 C 884.542969 721.917969 880.8125 719.621094 876.980469 717.242188 C 875.96875 716.585938 874.957031 715.925781 873.949219 715.265625 C 865.382812 709.714844 856.386719 704.527344 846 703.714844 C 842.894531 703.628906 839.796875 703.613281 836.691406 703.628906 C 835.542969 703.625 834.394531 703.625 833.246094 703.621094 C 830.855469 703.617188 828.460938 703.621094 826.066406 703.632812 C 823.023438 703.644531 819.980469 703.636719 816.941406 703.625 C 814.574219 703.617188 812.207031 703.621094 809.839844 703.625 C 808.71875 703.628906 807.597656 703.625 806.476562 703.621094 C 798.027344 703.589844 790.445312 704.335938 782.796875 708.160156 C 776.5 711.828125 769.996094 716.605469 765.910156 722.746094 C 761.109375 731.195312 759.664062 737.566406 759.6875 747.195312 L 759.675781 750.3125 C 759.667969 753.160156 759.664062 756.007812 759.667969 758.851562 C 759.667969 761.925781 759.660156 765 759.652344 768.074219 C 759.640625 774.09375 759.636719 780.113281 759.636719 786.136719 C 759.636719 791.03125 759.632812 795.929688 759.625 800.828125 C 759.613281 814.726562 759.605469 828.628906 759.609375 842.527344 L 759.609375 847.070312 C 759.609375 859.210938 759.59375 871.351562 759.574219 883.492188 C 759.550781 895.972656 759.542969 908.449219 759.542969 920.925781 C 759.542969 927.929688 759.539062 934.929688 759.523438 941.929688 C 759.507812 947.894531 759.507812 953.855469 759.515625 959.820312 C 759.519531 962.859375 759.519531 965.898438 759.507812 968.9375 C 759.371094 986.066406 759.371094 986.066406 762.898438 1002.753906 C 763.199219 1003.765625 763.496094 1004.777344 763.792969 1005.789062 C 764.605469 1008.535156 765.453125 1011.273438 766.332031 1014 L 768.074219 1019.523438 L 768.898438 1022.132812 L 769.671875 1024.582031 L 770.382812 1026.839844 L 771.011719 1028.867188 L 771.554688 1030.617188 C 771.929688 1032.109375 771.929688 1032.109375 771.929688 1034.371094 C 770.621094 1034.214844 770.621094 1034.214844 768.917969 1033.617188 C 767.410156 1032.074219 767.410156 1032.074219 765.816406 1030.042969 L 764.027344 1027.757812 L 763.09375 1026.550781 C 762.152344 1025.355469 761.195312 1024.175781 760.21875 1023.007812 C 752.679688 1013.828125 748.757812 1004.128906 746.613281 992.492188 C 745.855469 987.597656 745.929688 982.679688 745.960938 977.742188 C 745.957031 976.496094 745.953125 975.253906 745.949219 974.007812 C 745.9375 970.632812 745.945312 967.257812 745.957031 963.878906 C 745.964844 960.222656 745.957031 956.566406 745.949219 952.910156 C 745.9375 945.761719 745.941406 938.613281 745.957031 931.46875 C 745.96875 923.136719 745.964844 914.804688 745.960938 906.472656 C 745.957031 891.605469 745.96875 876.738281 745.988281 861.871094 C 746.003906 847.457031 746.011719 833.042969 746.003906 818.632812 C 745.992188 801.234375 745.996094 783.839844 746.007812 766.445312 L 746.007812 763.945312 C 746.011719 758.144531 746.011719 752.34375 746.007812 746.539062 C 746.003906 739.46875 746.007812 732.398438 746.023438 725.328125 C 746.03125 721.722656 746.035156 718.117188 746.027344 714.511719 C 746.023438 711.207031 746.027344 707.902344 746.042969 704.601562 C 746.042969 703.410156 746.042969 702.21875 746.039062 701.027344 C 746.007812 693.203125 746.578125 686.007812 749.722656 678.75 C 752.894531 673.449219 756.5 669.167969 760.917969 664.863281 L 762.929688 662.867188 C 765.027344 660.785156 767.136719 658.714844 769.25 656.648438 C 770.660156 655.246094 772.074219 653.847656 773.484375 652.445312 C 784.035156 642 784.035156 642 789.390625 637.378906 C 791.375 635.632812 793.21875 633.78125 795.078125 631.902344 L 796.222656 630.746094 C 797.410156 629.550781 798.597656 628.351562 799.78125 627.152344 C 808.871094 617.941406 808.871094 617.941406 813.5625 613.945312 C 815.386719 612.375 817.097656 610.699219 818.835938 609.039062 C 822.761719 605.488281 826.582031 602.988281 831.394531 600.804688 L 832.8125 600.144531 C 842.175781 595.851562 851.316406 594.316406 861.503906 593.277344 C 863.519531 593.0625 865.515625 592.816406 867.527344 592.527344 L 868.277344 591.773438 C 868.359375 590.191406 868.394531 588.605469 868.410156 587.019531 C 868.753906 565.542969 868.753906 565.542969 872.042969 556.394531 L 872.890625 553.964844 C 877.582031 541.734375 886.285156 531.269531 896.34375 523 C 902.910156 517.777344 909.089844 514.882812 917.203125 512.738281 L 918.617188 512.339844 C 920.398438 511.945312 922.054688 511.835938 923.882812 511.773438 L 926.214844 511.6875 L 928.824219 511.609375 L 931.625 511.515625 C 940.867188 511.222656 950.113281 511.070312 959.359375 510.902344 C 966.148438 510.78125 972.941406 510.652344 979.734375 510.523438 L 983.910156 510.445312 C 987.535156 510.375 991.15625 510.292969 994.78125 510.199219 L 997.238281 510.15625 C 1004.804688 509.925781 1012.003906 508.3125 1018.773438 504.882812 L 1020.304688 504.109375 C 1025.90625 501.121094 1030.234375 496.933594 1034.628906 492.414062 C 1035.804688 491.222656 1036.980469 490.03125 1038.15625 488.839844 L 1039.742188 487.210938 C 1041.570312 485.480469 1043.519531 484.03125 1045.542969 482.535156 C 1047.425781 481.113281 1047.425781 481.113281 1048.929688 479.617188 C 1049.867188 477.054688 1049.867188 477.054688 1049.683594 474.347656 C 1049.738281 471.308594 1049.878906 468.640625 1051.300781 465.910156 C 1053.117188 463.320312 1054.957031 461.347656 1057.679688 459.71875 C 1062.539062 457.46875 1066.886719 457.027344 1072.027344 458.683594 M 374.496094 530.804688 C 378.914062 532.425781 381.847656 535.753906 384.847656 539.257812 L 385.789062 540.589844 L 385.789062 542.09375 L 387.480469 542.101562 C 392.792969 542.128906 398.105469 542.175781 403.417969 542.230469 C 406.148438 542.261719 408.878906 542.285156 411.609375 542.296875 C 426.269531 542.367188 439.417969 542.613281 452.648438 549.695312 C 463.574219 556.246094 471.878906 566.265625 479.695312 576.128906 C 485.347656 582.96875 492.738281 587.101562 500.953125 590.265625 C 505.460938 591.574219 509.609375 592.0625 514.289062 592.203125 L 516.589844 592.289062 C 523.96875 592.535156 531.351562 592.65625 538.730469 592.785156 C 542.347656 592.847656 545.96875 592.914062 549.585938 592.980469 L 551.808594 593.019531 C 555.558594 593.089844 559.3125 593.148438 563.0625 593.203125 C 566.753906 593.253906 570.445312 593.320312 574.136719 593.394531 C 575.519531 593.421875 576.90625 593.441406 578.289062 593.457031 C 591.945312 593.613281 604.148438 596.09375 616.210938 602.875 C 622.429688 606.765625 627.464844 612.101562 632.585938 617.292969 C 633.976562 618.660156 635.417969 619.96875 636.914062 621.222656 C 640.5625 624.347656 643.898438 627.792969 647.257812 631.21875 C 650.078125 634.074219 653.011719 636.808594 656.050781 639.429688 C 663.59375 645.96875 670.707031 653.023438 677.8125 660.027344 C 678.605469 660.804688 679.398438 661.582031 680.195312 662.351562 C 685.65625 667.660156 690.703125 673.085938 693.679688 680.21875 C 694.648438 683.761719 694.753906 687.148438 694.867188 690.808594 L 694.953125 693.285156 C 695.300781 704.664062 695.261719 716.042969 695.253906 727.425781 C 695.25 730.832031 695.253906 734.242188 695.253906 737.652344 C 695.257812 744.300781 695.257812 750.949219 695.253906 757.597656 C 695.25 765.359375 695.25 773.121094 695.253906 780.878906 C 695.257812 795.558594 695.253906 810.242188 695.25 824.925781 C 695.246094 837.503906 695.25 850.082031 695.25 862.660156 C 695.253906 878.871094 695.257812 895.078125 695.253906 911.289062 L 695.253906 913.621094 C 695.253906 919.019531 695.253906 924.417969 695.257812 929.816406 C 695.257812 936.398438 695.257812 942.976562 695.253906 949.558594 C 695.25 952.910156 695.25 956.261719 695.253906 959.613281 C 695.253906 962.691406 695.253906 965.765625 695.25 968.839844 C 695.25 969.945312 695.25 971.050781 695.253906 972.15625 C 695.269531 983.546875 694.898438 994.109375 691.390625 1005.011719 C 691.152344 1005.769531 690.914062 1006.527344 690.671875 1007.308594 C 688.269531 1013.941406 684.082031 1019.199219 679.730469 1024.660156 C 678.667969 1025.996094 677.621094 1027.34375 676.578125 1028.699219 C 673.234375 1032.949219 673.234375 1032.949219 671.820312 1034.371094 L 669.5625 1034.371094 C 670.5 1029.308594 671.695312 1024.304688 673.136719 1019.363281 L 673.726562 1017.304688 C 674.703125 1013.910156 675.738281 1010.535156 676.828125 1007.175781 L 677.4375 1005.304688 C 677.816406 1004.15625 678.199219 1003.015625 678.589844 1001.875 C 681.34375 993.53125 681.828125 985.039062 681.804688 976.3125 L 681.816406 973.203125 C 681.824219 970.382812 681.824219 967.5625 681.824219 964.742188 C 681.824219 961.691406 681.832031 958.636719 681.839844 955.585938 C 681.851562 949.621094 681.855469 943.652344 681.855469 937.683594 C 681.855469 932.832031 681.859375 927.984375 681.867188 923.132812 C 681.878906 909.359375 681.882812 895.589844 681.882812 881.820312 L 681.882812 877.324219 C 681.882812 865.292969 681.898438 853.257812 681.917969 841.226562 C 681.941406 828.855469 681.949219 816.480469 681.949219 804.109375 C 681.949219 797.167969 681.953125 790.230469 681.96875 783.289062 C 681.984375 777.386719 681.984375 771.480469 681.976562 765.574219 C 681.972656 762.5625 681.972656 759.554688 681.984375 756.542969 C 681.996094 753.785156 681.996094 751.023438 681.980469 748.265625 C 681.976562 746.800781 681.988281 745.339844 682 743.878906 C 681.949219 737.101562 680.457031 731.828125 677.496094 725.769531 C 672.449219 717.550781 666.363281 711.636719 658.03125 706.648438 C 649.855469 702.59375 640.136719 702.921875 631.21875 702.894531 L 627.832031 702.875 C 625.480469 702.863281 623.132812 702.855469 620.785156 702.855469 C 617.796875 702.851562 614.8125 702.820312 611.828125 702.789062 C 609.503906 702.765625 607.179688 702.761719 604.851562 702.757812 C 603.753906 702.757812 602.652344 702.746094 601.554688 702.730469 C 593.59375 702.625 587.53125 704.042969 580.523438 707.882812 C 579.105469 708.699219 577.734375 709.566406 576.367188 710.464844 L 574.855469 711.4375 C 573.300781 712.441406 571.75 713.449219 570.203125 714.464844 L 567.058594 716.492188 C 566.050781 717.148438 565.046875 717.804688 564.039062 718.464844 L 562.644531 719.367188 C 559.824219 721.242188 557.347656 723.167969 555.148438 725.757812 C 554.707031 727.375 554.707031 727.375 554.820312 729.003906 C 554.695312 731.039062 554.488281 732.351562 553.539062 734.171875 C 551.023438 737.671875 548.28125 740.074219 544.609375 742.316406 C 541.15625 743.410156 537.652344 743.542969 534.074219 743.070312 C 530.800781 741.753906 528.242188 739.695312 525.886719 737.09375 C 523.945312 734.296875 522.972656 732.089844 522.617188 728.695312 C 522.472656 725.207031 522.839844 722.148438 524.203125 718.921875 C 525.757812 716.238281 527.839844 714.070312 530.308594 712.207031 C 534.011719 710.335938 537.453125 710.453125 541.527344 710.492188 C 544.222656 710.734375 546.023438 711.667969 548.375 712.960938 C 552.207031 712.011719 555.046875 709.304688 558.066406 706.890625 C 568.167969 699.019531 578.539062 692.429688 591.304688 689.933594 C 595.507812 689.355469 599.703125 689.550781 603.933594 689.667969 L 608.386719 689.765625 C 610.441406 689.808594 612.496094 689.863281 614.554688 689.914062 C 618.175781 690.007812 621.800781 690.089844 625.421875 690.171875 C 627.347656 690.210938 629.273438 690.257812 631.199219 690.3125 L 633.820312 690.371094 L 636.128906 690.429688 C 637.957031 690.503906 637.957031 690.503906 639.453125 689.625 C 637.867188 686.695312 636.128906 684.707031 633.621094 682.523438 L 631.597656 680.75 C 628.640625 678.203125 628.640625 678.203125 625.652344 675.6875 C 623.214844 673.519531 620.964844 671.15625 618.722656 668.789062 C 612.175781 661.972656 605.808594 657.890625 596.730469 655.054688 C 591.332031 653.554688 585.832031 653.652344 580.269531 653.636719 C 579.011719 653.621094 577.75 653.605469 576.488281 653.585938 C 573.808594 653.554688 571.125 653.53125 568.441406 653.523438 C 564.753906 653.503906 561.066406 653.449219 557.378906 653.390625 C 554.335938 653.34375 551.289062 653.3125 548.246094 653.285156 C 546.78125 653.269531 545.316406 653.25 543.847656 653.222656 C 534.621094 653.082031 526.625 653.273438 518.273438 657.699219 C 513.714844 660.363281 509.972656 663.746094 506.125 667.328125 C 499.773438 673.128906 493.453125 677.949219 485.203125 680.796875 C 484.058594 681.203125 482.933594 681.644531 481.824219 682.128906 C 472.21875 685.785156 461.664062 684.710938 451.558594 684.613281 C 448.976562 684.597656 446.394531 684.59375 443.816406 684.609375 L 441.410156 684.558594 C 439.332031 684.574219 437.488281 684.625 435.46875 685.109375 C 433.46875 687.179688 433.46875 687.179688 432.457031 689.625 C 429.589844 692.414062 426.511719 693.910156 422.671875 694.894531 C 419.496094 695.351562 416.652344 695.042969 413.589844 694.09375 C 410.664062 692.875 408.648438 691.050781 406.445312 688.808594 C 405.164062 687.109375 404.492188 685.636719 403.851562 683.605469 C 403.421875 679.980469 403.363281 676.339844 404.34375 672.804688 C 405.839844 669.472656 407.980469 667.246094 410.792969 664.957031 C 413.097656 663.367188 414.703125 662.585938 417.53125 662.222656 C 424.589844 662.039062 424.589844 662.039062 427.578125 663.382812 C 429.996094 665.144531 431.558594 666.8125 433.175781 669.355469 C 434.15625 670.613281 434.15625 670.613281 435.46875 671.5625 C 438.078125 672.230469 440.628906 672.175781 443.316406 672.132812 L 445.640625 672.140625 C 447.269531 672.140625 448.898438 672.128906 450.527344 672.109375 C 452.976562 672.078125 455.425781 672.09375 457.878906 672.113281 C 468.054688 672.109375 476.90625 671.292969 486.074219 666.535156 C 490.300781 664.078125 493.550781 661.03125 496.90625 657.507812 C 500.207031 654.273438 503.972656 651.660156 507.726562 648.980469 L 509.464844 647.65625 C 515.167969 643.492188 521.867188 641.667969 528.804688 640.699219 C 530.796875 640.628906 532.765625 640.589844 534.757812 640.589844 L 536.515625 640.582031 C 538.421875 640.578125 540.328125 640.574219 542.238281 640.574219 L 546.25 640.566406 C 549.050781 640.5625 551.855469 640.558594 554.65625 640.558594 C 558.222656 640.558594 561.789062 640.550781 565.355469 640.535156 C 568.117188 640.53125 570.882812 640.527344 573.644531 640.527344 C 574.960938 640.527344 576.273438 640.523438 577.585938 640.515625 C 590.058594 640.46875 601.730469 641.414062 612.96875 647.378906 C 621.195312 652.394531 627.929688 659.886719 634.605469 666.757812 C 636.621094 668.726562 638.730469 670.558594 640.855469 672.402344 C 643.523438 674.753906 646.09375 677.207031 648.671875 679.652344 L 652.050781 682.839844 L 653.707031 684.398438 C 659.554688 689.90625 665.472656 695.226562 671.820312 700.164062 C 676.5 703.878906 676.5 703.878906 677.839844 705.433594 L 677.839844 706.9375 L 681.605469 707.691406 C 681.660156 704.679688 681.703125 701.667969 681.730469 698.652344 C 681.738281 697.632812 681.753906 696.609375 681.773438 695.585938 C 682.070312 689.058594 682.070312 689.058594 680.648438 682.769531 C 676.34375 675.578125 670.355469 670.078125 664.179688 664.539062 C 661.617188 662.222656 659.097656 659.859375 656.578125 657.492188 L 655.019531 656.035156 C 651.757812 652.960938 648.554688 649.828125 645.410156 646.636719 C 643.601562 644.855469 641.703125 643.210938 639.777344 641.5625 C 637.234375 639.316406 634.773438 636.996094 632.300781 634.679688 C 628.90625 631.488281 625.488281 628.351562 621.949219 625.320312 C 620.464844 623.988281 619.101562 622.566406 617.71875 621.128906 C 611.367188 614.738281 604.175781 611.101562 595.675781 608.300781 C 592.515625 607.511719 589.6875 607.320312 586.449219 607.269531 L 584.597656 607.226562 C 582.582031 607.179688 580.566406 607.140625 578.554688 607.105469 C 577.132812 607.074219 575.714844 607.039062 574.296875 607.007812 C 571.316406 606.941406 568.339844 606.878906 565.359375 606.824219 C 561.59375 606.75 557.828125 606.671875 554.0625 606.585938 C 545.140625 606.386719 536.21875 606.21875 527.296875 606.074219 L 525.710938 606.050781 C 522.757812 606 519.808594 605.96875 516.855469 605.949219 L 514.867188 605.921875 C 509.34375 605.910156 505.113281 607.320312 500.199219 609.839844 C 498.847656 610.496094 497.492188 611.148438 496.132812 611.800781 C 493.855469 612.890625 491.578125 613.984375 489.304688 615.085938 C 476.234375 621.371094 464.464844 623.621094 450.027344 623.5 C 447.96875 623.484375 445.914062 623.484375 443.855469 623.488281 C 438.011719 623.496094 432.167969 623.496094 426.324219 623.445312 C 422.730469 623.417969 419.136719 623.417969 415.542969 623.4375 C 414.183594 623.4375 412.824219 623.429688 411.464844 623.410156 C 405.355469 623.261719 405.355469 623.261719 399.335938 624.140625 C 397.085938 625.464844 395.578125 626.75 393.878906 628.71875 C 392.410156 630.328125 391.195312 630.953125 389.175781 631.714844 C 385.699219 632.671875 382.511719 632.425781 379.011719 631.667969 L 376.753906 630.914062 L 376.753906 629.410156 L 375.109375 628.984375 C 372.574219 627.6875 371.570312 626.265625 369.992188 623.953125 C 368.445312 621.28125 368.28125 618.742188 368.050781 615.71875 L 367.859375 613.242188 L 367.722656 611.34375 L 369.226562 611.34375 L 368.476562 609.085938 C 371.738281 605.625 375.191406 602.332031 379.765625 600.804688 C 383.320312 600.488281 387.003906 600.210938 390.429688 601.347656 C 393.335938 602.9375 395.695312 605.074219 397.832031 607.578125 C 398.363281 608.820312 398.871094 610.074219 399.335938 611.34375 C 406.292969 611.378906 413.25 611.40625 420.207031 611.421875 C 423.4375 611.429688 426.667969 611.441406 429.898438 611.457031 C 433.027344 611.472656 436.15625 611.484375 439.285156 611.488281 C 440.46875 611.488281 441.652344 611.496094 442.835938 611.503906 C 458.585938 611.609375 471.992188 609.128906 486.175781 601.972656 L 488.15625 600.804688 L 488.910156 599.300781 L 487.40625 599.300781 L 487.40625 597.792969 L 485.75 597.1875 C 477.433594 593.640625 471.480469 586.871094 466.09375 579.871094 C 459.058594 570.757812 451.488281 563.671875 440.925781 558.792969 C 429.167969 554.335938 415.886719 555.324219 403.523438 555.171875 C 401.582031 555.144531 399.636719 555.113281 397.695312 555.085938 C 392.972656 555.011719 388.25 554.949219 383.53125 554.890625 L 382.914062 556.273438 C 381.792969 558.324219 380.328125 559.53125 378.398438 560.824219 C 375.234375 562.445312 372.015625 563.074219 368.476562 563.167969 C 365.5 562.582031 362.898438 561.507812 360.195312 560.160156 L 360.195312 558.652344 L 358.878906 558.230469 C 356.855469 556.9375 355.898438 555.4375 354.792969 553.324219 C 353.59375 550.527344 353.324219 548.003906 353.53125 544.984375 C 353.933594 542.378906 354.5625 540.386719 356.015625 538.171875 C 358.261719 535.457031 360.726562 532.871094 363.902344 531.277344 C 367.421875 530.210938 370.886719 530.257812 374.496094 530.804688 M 728.273438 173.261719 C 731.15625 175.039062 733.410156 177.066406 735.167969 179.980469 C 736.488281 183.054688 736.988281 186.207031 736.867188 189.542969 C 736.257812 192.996094 734.71875 195.953125 732.789062 198.855469 C 730.71875 200.738281 730.71875 200.738281 729.027344 201.867188 C 727.890625 204.136719 728.171875 206.484375 728.175781 208.976562 L 728.171875 210.757812 C 728.171875 212.753906 728.171875 214.75 728.175781 216.75 L 728.171875 221.074219 C 728.167969 225.074219 728.167969 229.070312 728.167969 233.066406 C 728.167969 237.40625 728.167969 241.742188 728.164062 246.078125 C 728.15625 254.1875 728.15625 262.300781 728.15625 270.414062 C 728.15625 278.085938 728.152344 285.753906 728.148438 293.421875 L 728.148438 294.984375 L 728.136719 320.675781 C 728.132812 332.609375 728.128906 344.546875 728.125 356.480469 C 728.117188 384.253906 728.105469 412.027344 728.085938 439.800781 L 728.066406 472.488281 L 728.066406 477.996094 C 728.027344 537.636719 728 597.265625 727.980469 656.890625 L 727.980469 658.8125 L 727.972656 679.90625 L 727.972656 681.816406 L 727.96875 691.378906 C 727.960938 720.179688 727.949219 748.980469 727.933594 777.78125 L 727.933594 779.617188 C 727.898438 798.257812 727.886719 816.902344 727.894531 835.542969 L 727.894531 837.316406 C 727.882812 856.171875 727.875 875.023438 727.875 893.875 C 727.875 915.496094 727.863281 937.117188 727.84375 958.738281 L 727.839844 960.300781 C 727.832031 968.9375 727.835938 977.578125 727.839844 986.214844 C 727.84375 993.734375 727.835938 1001.25 727.824219 1008.769531 C 727.816406 1013.054688 727.816406 1017.335938 727.824219 1021.621094 C 727.828125 1025.523438 727.824219 1029.425781 727.8125 1033.324219 C 727.808594 1034.722656 727.808594 1036.121094 727.816406 1037.523438 C 727.855469 1048.714844 726.625 1059.070312 723.003906 1069.746094 L 720.746094 1069.746094 C 720.363281 1068.808594 719.988281 1067.867188 719.617188 1066.925781 L 718.980469 1065.335938 C 718.488281 1063.726562 718.488281 1063.726562 718.488281 1060.714844 L 716.984375 1059.960938 C 714.351562 1051.496094 714.40625 1042.835938 714.445312 1034.066406 L 714.4375 1029.699219 C 714.429688 1025.710938 714.4375 1021.71875 714.449219 1017.730469 C 714.457031 1013.386719 714.449219 1009.039062 714.445312 1004.695312 C 714.441406 997.082031 714.445312 989.472656 714.453125 981.863281 C 714.464844 973.175781 714.46875 964.492188 714.46875 955.808594 L 714.46875 947.910156 C 714.464844 928.871094 714.472656 909.832031 714.484375 890.792969 C 714.5 871.941406 714.507812 853.089844 714.507812 834.242188 L 714.507812 832.464844 L 714.511719 816.414062 L 714.519531 774.683594 C 714.523438 745.238281 714.539062 715.792969 714.554688 686.347656 L 714.570312 655.699219 L 714.570312 653.777344 C 714.59375 622.402344 714.605469 591.023438 714.601562 559.644531 L 714.609375 521.609375 L 714.628906 442.320312 C 714.644531 388.25 714.664062 334.175781 714.6875 280.105469 L 714.6875 278.570312 C 714.699219 253.253906 714.710938 227.9375 714.722656 202.621094 L 712.921875 201.9375 C 710.332031 200.851562 709.140625 199.394531 707.421875 197.234375 C 706.007812 195.226562 705.359375 193.769531 704.9375 191.328125 C 704.949219 187.59375 705.328125 184.15625 706.492188 180.601562 C 708.601562 177.605469 710.917969 175.296875 713.972656 173.261719 C 718.664062 171.195312 723.535156 171.414062 728.273438 173.261719 " fill-opacity="1" fill-rule="nonzero"/><g fill="#ffffff" fill-opacity="1"><g transform="translate(361.585609, 1207.847108)"><g><path d="M 99.15625 -94.5625 L 57.953125 0 L 40.65625 0 L -0.671875 -94.5625 L 18.375 -94.5625 L 49.84375 -21.609375 L 81.59375 -94.5625 Z M 99.15625 -94.5625 "/></g></g></g><g fill="#ffffff" fill-opacity="1"><g transform="translate(477.091859, 1207.847108)"><g><path d="M 12.703125 -94.5625 L 30.265625 -94.5625 L 30.265625 0 L 12.703125 0 Z M 12.703125 -94.5625 "/></g></g></g><g fill="#ffffff" fill-opacity="1"><g transform="translate(539.236133, 1207.847108)"><g><path d="M 12.703125 -94.5625 L 54.03125 -94.5625 C 64.125 -94.5625 73.085938 -92.601562 80.921875 -88.6875 C 88.753906 -84.769531 94.832031 -79.226562 99.15625 -72.0625 C 103.476562 -64.90625 105.640625 -56.644531 105.640625 -47.28125 C 105.640625 -37.914062 103.476562 -29.648438 99.15625 -22.484375 C 94.832031 -15.328125 88.753906 -9.789062 80.921875 -5.875 C 73.085938 -1.957031 64.125 0 54.03125 0 L 12.703125 0 Z M 53.234375 -14.859375 C 60.160156 -14.859375 66.257812 -16.1875 71.53125 -18.84375 C 76.800781 -21.5 80.851562 -25.28125 83.6875 -30.1875 C 86.53125 -35.101562 87.953125 -40.800781 87.953125 -47.28125 C 87.953125 -53.769531 86.53125 -59.46875 83.6875 -64.375 C 80.851562 -69.28125 76.800781 -73.0625 71.53125 -75.71875 C 66.257812 -78.375 60.160156 -79.703125 53.234375 -79.703125 L 30.265625 -79.703125 L 30.265625 -14.859375 Z M 53.234375 -14.859375 "/></g></g></g><g fill="#ffffff" fill-opacity="1"><g transform="translate(669.872937, 1207.847108)"><g><path d="M 12.703125 -94.5625 L 54.03125 -94.5625 C 64.125 -94.5625 73.085938 -92.601562 80.921875 -88.6875 C 88.753906 -84.769531 94.832031 -79.226562 99.15625 -72.0625 C 103.476562 -64.90625 105.640625 -56.644531 105.640625 -47.28125 C 105.640625 -37.914062 103.476562 -29.648438 99.15625 -22.484375 C 94.832031 -15.328125 88.753906 -9.789062 80.921875 -5.875 C 73.085938 -1.957031 64.125 0 54.03125 0 L 12.703125 0 Z M 53.234375 -14.859375 C 60.160156 -14.859375 66.257812 -16.1875 71.53125 -18.84375 C 76.800781 -21.5 80.851562 -25.28125 83.6875 -30.1875 C 86.53125 -35.101562 87.953125 -40.800781 87.953125 -47.28125 C 87.953125 -53.769531 86.53125 -59.46875 83.6875 -64.375 C 80.851562 -69.28125 76.800781 -73.0625 71.53125 -75.71875 C 66.257812 -78.375 60.160156 -79.703125 53.234375 -79.703125 L 30.265625 -79.703125 L 30.265625 -14.859375 Z M 53.234375 -14.859375 "/></g></g></g><g fill="#ffffff" fill-opacity="1"><g transform="translate(799.158751, 1207.847108)"><g><path d="M 74.03125 -21.890625 L 26.75 -21.890625 L 17.421875 0 L -0.671875 0 L 41.875 -94.5625 L 59.171875 -94.5625 L 101.859375 0 L 83.484375 0 Z M 68.21875 -35.671875 L 50.390625 -77 L 32.6875 -35.671875 Z M 68.21875 -35.671875 "/></g></g></g><g fill="#ffffff" fill-opacity="1"><g transform="translate(919.393344, 1207.847108)"><g><path d="M 74.578125 0 L 55.25 -27.6875 C 54.4375 -27.601562 53.222656 -27.5625 51.609375 -27.5625 L 30.265625 -27.5625 L 30.265625 0 L 12.703125 0 L 12.703125 -94.5625 L 51.609375 -94.5625 C 59.804688 -94.5625 66.941406 -93.207031 73.015625 -90.5 C 79.097656 -87.800781 83.757812 -83.929688 87 -78.890625 C 90.238281 -73.847656 91.859375 -67.859375 91.859375 -60.921875 C 91.859375 -53.804688 90.125 -47.679688 86.65625 -42.546875 C 83.195312 -37.421875 78.222656 -33.597656 71.734375 -31.078125 L 93.484375 0 Z M 74.171875 -60.921875 C 74.171875 -66.960938 72.1875 -71.601562 68.21875 -74.84375 C 64.257812 -78.082031 58.453125 -79.703125 50.796875 -79.703125 L 30.265625 -79.703125 L 30.265625 -42.015625 L 50.796875 -42.015625 C 58.453125 -42.015625 64.257812 -43.65625 68.21875 -46.9375 C 72.1875 -50.226562 74.171875 -54.890625 74.171875 -60.921875 Z M 74.171875 -60.921875 "/></g></g></g><g fill="#ffffff" fill-opacity="1"><g transform="translate(1037.196252, 1207.847108)"><g><path d="M 74.03125 -21.890625 L 26.75 -21.890625 L 17.421875 0 L -0.671875 0 L 41.875 -94.5625 L 59.171875 -94.5625 L 101.859375 0 L 83.484375 0 Z M 68.21875 -35.671875 L 50.390625 -77 L 32.6875 -35.671875 Z M 68.21875 -35.671875 "/></g></g></g></svg>